<?xml version="1.0" encoding="utf-8"?>
<!-- Generator: Adobe Illustrator 19.2.1, SVG Export Plug-In . SVG Version: 6.00 Build 0)  -->
<svg version="1.1" id="Layer_1" xmlns="http://www.w3.org/2000/svg" xmlns:xlink="http://www.w3.org/1999/xlink" x="0px" y="0px"
	 viewBox="0 0 155.569 150" style="enable-background:new 0 0 155.569 150;" xml:space="preserve">
<style type="text/css">
	.st0{fill:#7C634F;}
	.st1{fill:#D0D2D3;}
	.st2{fill:#6ECAF3;}
	.st3{fill:#CED0D1;}
	.st4{fill:#F6CC78;}
	.st5{fill:#BBBDBF;}
	.st6{fill:#58595B;}
	.st7{fill:#FFB4D3;}
	.st8{fill:#A6A8AB;}
	.st9{opacity:0.2;fill:#FFFFFF;}
	.st10{fill:#4F3E31;}
	.st11{fill:#EBEBEC;}
	.st12{fill:#E0E1E2;}
	.st13{fill:#D1D2D4;}
	.st14{fill:#534235;}
	.st15{fill:#4A3A2E;}
	.st16{fill:#F8C1D9;}
	.st17{fill:#FFFFFF;}
	.st18{fill:#E4E5E6;}
	.st19{fill:#836854;}
	.st20{fill:#745D4A;}
	.st21{fill:#F3A5C8;}
	.st22{fill:#66493C;}
	.st23{fill:#6F5043;}
	.st24{fill:#4C3C34;}
	.st25{fill:#F4F4F6;}
	.st26{fill:#F8F8F9;}
	.st27{fill:#EBEBEE;}
	.st28{fill:#DFDFE0;}
	.st29{fill:#86888A;}
	.st30{fill:#A54B94;}
	.st31{fill:#D4BC9B;}
	.st32{fill:#A55498;}
	.st33{fill:#D3A561;}
	.st34{fill:#C7B192;}
	.st35{fill:#DCC6A9;}
	.st36{fill:#D3AD72;}
	.st37{fill:#CAB4FF;}
	.st38{fill:#C6A9FF;}
	.st39{fill:#765C60;}
	.st40{fill:#864481;}
	.st41{fill:#AE8950;}
	.st42{fill:#AA8CE1;}
	.st43{fill:#846255;}
	.st44{fill:#6AAB98;}
	.st45{fill:#F5887A;}
	.st46{fill:#8C685B;}
	.st47{fill:#77584D;}
	.st48{fill:#F69788;}
	.st49{fill:#E07D70;}
	.st50{fill:#7CB0A7;}
	.st51{fill:#619E8D;}
	.st52{fill:#70524E;}
	.st53{fill:#A78AF2;}
	.st54{fill:#50DB7E;}
	.st55{fill:#FBC2F2;}
	.st56{fill:#ECF4F9;}
	.st57{fill:#987EE7;}
	.st58{fill:#FBB0F2;}
	.st59{fill:#AC92FF;}
	.st60{fill:#5C76AA;}
	.st61{fill:#00B8ED;}
	.st62{fill:#EFEFF0;}
	.st63{fill:#CDAA6F;}
	.st64{fill:#5E8664;}
	.st65{fill:#644F3B;}
	.st66{fill:#785E47;}
	.st67{fill:#5C4936;}
	.st68{fill:#6A533E;}
	.st69{fill:#80654D;}
	.st70{fill:#544835;}
	.st71{fill:#D8468E;}
	.st72{fill:#5AD83F;}
	.st73{fill:#47C93F;}
	.st74{fill:#1CB14B;}
	.st75{fill:#D1FF25;}
	.st76{fill:#FF86B5;}
	.st77{fill:#F086B5;}
	.st78{fill:#F0F1F1;}
	.st79{fill:#F580B5;}
	.st80{fill:#E5E6E7;}
	.st81{fill:#E67CAD;}
	.st82{fill:#D46CAD;}
	.st83{fill:#796F6C;}
	.st84{fill:#0E86FE;}
	.st85{fill:#C93131;}
	.st86{fill:#B83131;}
	.st87{fill:#E5E5E5;}
	.st88{fill:#0E7FFB;}
	.st89{fill:#DBDCDD;}
	.st90{fill:none;stroke:#8D382D;stroke-width:4;stroke-linecap:round;stroke-linejoin:round;stroke-miterlimit:10;}
	.st91{fill:none;stroke:#0E6CFE;stroke-width:4;stroke-linecap:round;stroke-linejoin:round;stroke-miterlimit:10;}
	.st92{fill:none;stroke:#BBBDBF;stroke-width:4;stroke-linecap:round;stroke-linejoin:round;stroke-miterlimit:10;}
	.st93{fill:none;stroke:#A6A8AB;stroke-width:4;stroke-linecap:round;stroke-linejoin:round;stroke-miterlimit:10;}
	.st94{fill:#701F2F;}
	.st95{fill:#1C3B71;}
	.st96{fill:#214181;}
	.st97{fill:#621221;}
	.st98{fill:#231F20;}
	.st99{fill:#31DCFF;}
	.st100{fill:#80192B;}
	.st101{fill:#80994A;}
	.st102{fill:#6B192B;}
	.st103{fill:#5E7031;}
	.st104{fill:#58192B;}
	.st105{fill:#68E674;}
	.st106{fill:#FD7C91;}
	.st107{fill:#27A5FF;}
	.st108{fill:#B081E3;}
	.st109{fill:#FFEB26;}
	.st110{fill:#FFF04D;}
	.st111{fill:#FFDE00;}
	.st112{fill:#FFD906;}
	.st113{fill:#EFBD55;}
	.st114{fill:#E2AD41;}
	.st115{fill:#D69E36;}
	.st116{fill:#CE9333;}
	.st117{fill:#F2829E;}
	.st118{fill:#FED77E;}
	.st119{fill:#FECC71;}
	.st120{fill:#FEC471;}
	.st121{fill:#F4CFB4;}
	.st122{fill:#F2729E;}
	.st123{fill:#9FA2A0;}
	.st124{fill:#E8C0A5;}
	.st125{fill:#D97CFF;}
	.st126{fill:#D1C6C1;}
	.st127{fill:#C0B6B2;}
	.st128{fill:#FAAF40;}
	.st129{fill:#F3AA3F;}
	.st130{fill:#F3F4F4;}
	.st131{fill:#9A8479;}
	.st132{fill:#99EC9B;}
	.st133{fill:#FF9AB5;}
	.st134{fill:#F38DB0;}
	.st135{fill:#8ED79B;}
	.st136{fill:#FFAAC4;}
	.st137{fill:#B9F6AB;}
	.st138{fill:#6D6E71;}
	.st139{fill:#93A8BE;}
	.st140{fill:#8CA1B7;}
	.st141{fill:#718AA2;}
	.st142{fill:#9D5388;}
	.st143{fill:#8E4A7C;}
	.st144{fill:#FFED79;}
	.st145{fill:#B90B22;}
	.st146{fill:#FFE45C;}
	.st147{fill:#A60014;}
	.st148{fill:#C2172A;}
	.st149{fill:none;stroke:#FFDB17;stroke-width:4;stroke-linecap:round;stroke-linejoin:round;stroke-miterlimit:10;}
	.st150{fill:#FFDB17;}
	.st151{fill:#8B0002;}
	.st152{fill:#A0C863;}
	.st153{fill:#BAE063;}
	.st154{fill:#9AC058;}
	.st155{fill:#92B951;}
	.st156{fill:#D0EF83;}
	.st157{fill:#729040;}
</style>
<g>
	<g>
		<path class="st152" d="M77.64,11.41l-0.39,0.09H68.6h-6.7H51.33C52.7,5.48,58.07,1,64.5,1C70.89,1,76.25,5.44,77.64,11.41z"/>
		<path class="st152" d="M152.42,69.99c6.65,5.16-0.05,24.96-14.98,44.22c-5.36,6.92-11.05,12.83-16.45,17.33v0.36l6.24,0.52
			c2.2,0.22,4.14,1.26,5.53,2.79c1.39,1.54,2.23,3.57,2.23,5.79h-18.01c-4.41,0-7.99-3.58-7.99-7.99V125l-0.36-0.57
			C125.64,114.08,137,95.37,137,74c0-0.34,0-0.67-0.02-1H137l0.99-0.64C144.19,68.72,149.41,67.66,152.42,69.99z"/>
		<path class="st152" d="M94,130.8c-5.09,1.44-10.45,2.2-16,2.2c-5.54,0-10.91-0.76-15.99-2.19H62V144h-0.02c-0.37,2.8-3.8,5-7.97,5
			c-4.43,0-8.01-2.46-8.01-5.5c0-2.52,2.46-4.64,5.82-5.29L51,126.47c-1.24-0.64-2.45-1.32-3.64-2.04C30.36,114.08,19,95.37,19,74
			c0-0.34,0-0.67,0.02-1c0.37-22.85,13.73-42.54,33.03-52l0.58-0.06C54.91,25.15,59.37,28,64.5,28C71.96,28,78,21.96,78,14.5
			C78,21.96,84.04,28,91.5,28c5.13,0,9.59-2.85,11.87-7.06l0.58,0.06c19.3,9.46,32.66,29.15,33.03,52c0.02,0.33,0.02,0.66,0.02,1
			c0,21.37-11.36,40.08-28.37,50.43c-1.18,0.72-2.39,1.4-3.63,2.04l-0.82,11.74c3.36,0.65,5.82,2.77,5.82,5.29
			c0,3.04-3.58,5.5-8.01,5.5c-4.17,0-7.6-2.2-7.97-5H94V130.8z M126,81.5c0-1.93-1.57-3.5-3.5-3.5s-3.5,1.57-3.5,3.5
			s1.57,3.5,3.5,3.5S126,83.43,126,81.5z M121,95.5c0-0.83-0.67-1.5-1.5-1.5s-1.5,0.67-1.5,1.5s0.67,1.5,1.5,1.5S121,96.33,121,95.5
			z M118,68.5c0-0.83-0.67-1.5-1.5-1.5s-1.5,0.67-1.5,1.5s0.67,1.5,1.5,1.5S118,69.33,118,68.5z M116,86c0-3.31-2.69-6-6-6
			s-6,2.69-6,6s2.69,6,6,6S116,89.31,116,86z M101,78.5c0-1.93-1.57-3.5-3.5-3.5S94,76.57,94,78.5s1.57,3.5,3.5,3.5
			S101,80.43,101,78.5z M87,89.5c0-0.83-0.67-1.5-1.5-1.5S84,88.67,84,89.5s0.67,1.5,1.5,1.5S87,90.33,87,89.5z"/>
		<circle class="st153" cx="122.5" cy="81.5" r="3.5"/>
		<circle class="st153" cx="119.5" cy="95.5" r="1.5"/>
		<circle class="st153" cx="116.5" cy="68.5" r="1.5"/>
		<circle class="st153" cx="110" cy="86" r="6"/>
		<path class="st17" d="M104.64,11.41c0.24,0.99,0.36,2.02,0.36,3.09c0,2.33-0.59,4.52-1.63,6.44C101.09,25.15,96.63,28,91.5,28
			C84.04,28,78,21.96,78,14.5c0-1.03,0.12-2.04,0.33-3H88.9c-0.72,0.8-1.15,1.85-1.15,3c0,2.49,2.01,4.5,4.5,4.5s4.5-2.01,4.5-4.5
			c0-1.15-0.43-2.2-1.15-3h8.65L104.64,11.41z"/>
		<path class="st152" d="M104.64,11.41l-0.39,0.09H95.6h-6.7H78.33C79.7,5.48,85.07,1,91.5,1C97.89,1,103.25,5.44,104.64,11.41z"/>
		<circle class="st153" cx="97.5" cy="78.5" r="3.5"/>
		<path class="st153" d="M95.6,11.5c0.72,0.8,1.15,1.85,1.15,3c0,2.49-2.01,4.5-4.5,4.5s-4.5-2.01-4.5-4.5c0-1.15,0.43-2.2,1.15-3
			H95.6z"/>
		<circle class="st153" cx="85.5" cy="89.5" r="1.5"/>
		<path class="st17" d="M77.67,11.5c0.21,0.96,0.33,1.97,0.33,3C78,21.96,71.96,28,64.5,28c-5.13,0-9.59-2.85-11.87-7.06
			C51.59,19.02,51,16.83,51,14.5c0-1.07,0.12-2.1,0.36-3.09l0.39,0.09h9.4c-0.72,0.8-1.15,1.85-1.15,3c0,2.49,2.01,4.5,4.5,4.5
			c2.49,0,4.5-2.01,4.5-4.5c0-1.15-0.43-2.2-1.15-3H77.67z"/>
		<path class="st153" d="M67.85,11.5c0.72,0.8,1.15,1.85,1.15,3c0,2.49-2.01,4.5-4.5,4.5c-2.49,0-4.5-2.01-4.5-4.5
			c0-1.15,0.43-2.2,1.15-3H67.85z"/>
		<path class="st154" d="M47.36,124.43L47,125v8.01c0,4.41-3.58,7.99-7.99,7.99H21c0-2.22,0.84-4.25,2.23-5.79
			c1.39-1.53,3.33-2.57,5.53-2.79L35,131.9v-0.36c-5.4-4.5-11.09-10.41-16.45-17.33C3.62,94.95-3.08,75.15,3.57,69.99
			c3.01-2.33,8.23-1.27,14.43,2.37L19,73h0.02C19,73.33,19,73.66,19,74C19,95.37,30.36,114.08,47.36,124.43z"/>
		<g>
			<path class="st80" d="M104.64,11.41l-0.39,0.09h0.406C104.649,11.471,104.647,11.439,104.64,11.41z"/>
			<path class="st80" d="M84,14.5c0-1.03,0.12-2.04,0.33-3h-6c-0.21,0.96-0.33,1.97-0.33,3C78,21.96,84.04,28,91.5,28
				c1.037,0,2.044-0.122,3.013-0.342C88.494,26.298,84,20.932,84,14.5z"/>
		</g>
		<path class="st155" d="M94.318,1.307C93.408,1.113,92.468,1,91.5,1c-6.43,0-11.8,4.48-13.17,10.5h5.64
			C85.134,6.388,89.186,2.397,94.318,1.307z"/>
		<path class="st155" d="M67.318,1.307C66.408,1.113,65.468,1,64.5,1c-6.43,0-11.8,4.48-13.17,10.5h5.64
			C58.134,6.388,62.186,2.397,67.318,1.307z"/>
		<g>
			<path class="st80" d="M58.63,20.94C57.59,19.02,57,16.83,57,14.5c0-1.038,0.118-2.037,0.344-3H51.75l-0.39-0.09
				C51.12,12.4,51,13.43,51,14.5c0,2.33,0.59,4.52,1.63,6.44C54.91,25.15,59.37,28,64.5,28c1.028,0,2.025-0.125,2.987-0.342
				C63.659,26.787,60.449,24.299,58.63,20.94z"/>
		</g>
		<path class="st156" d="M122.5,78c-0.35,0-0.681,0.067-1,0.163c1.441,0.433,2.5,1.757,2.5,3.337s-1.059,2.903-2.5,3.337
			c0.319,0.096,0.65,0.163,1,0.163c1.93,0,3.5-1.57,3.5-3.5S124.43,78,122.5,78z"/>
		<g>
			<path class="st154" d="M66.72,130.706c-17.501-10.655-29.195-29.916-29.195-51.915c0-0.35,0-0.69,0.021-1.029
				c0.337-20.836,11.172-39.114,27.45-49.787C64.83,27.981,64.667,28,64.5,28c-5.13,0-9.59-2.85-11.87-7.06L52.05,21
				c-19.3,9.46-32.66,29.15-33.03,52C19,73.33,19,73.66,19,74c0,21.37,11.36,40.08,28.36,50.43c1.19,0.72,2.4,1.4,3.64,2.04L52,138
				l-0.18,0.21c-3.36,0.65-5.82,2.77-5.82,5.29c0,3.04,3.58,5.5,8.01,5.5c4.17,0,7.6-2.2,7.97-5H62v-13.19h0.01
				c2.521,0.709,5.113,1.253,7.761,1.622C68.738,131.882,67.72,131.311,66.72,130.706z"/>
		</g>
		<path class="st156" d="M110,80c-0.519,0-1.02,0.073-1.5,0.197c2.584,0.668,4.5,3.012,4.5,5.803s-1.916,5.135-4.5,5.803
			C108.98,91.927,109.481,92,110,92c3.31,0,6-2.69,6-6S113.31,80,110,80z"/>
		<path class="st156" d="M97.5,75c-0.35,0-0.681,0.067-1,0.163C97.941,75.597,99,76.92,99,78.5s-1.059,2.903-2.5,3.337
			c0.319,0.096,0.65,0.163,1,0.163c1.93,0,3.5-1.57,3.5-3.5S99.43,75,97.5,75z"/>
	</g>
	<g>
		<path class="st157" d="M138.23,114.823c15.501-19.996,22.003-40.036,14.802-45.623c-3.205-2.482-8.414-1.773-15.11,2.052
			c-0.972-21.799-13.542-41.173-33.154-50.956C105.562,18.471,106,16.497,106,14.5c0-1.143-0.13-2.26-0.388-3.321
			C104.078,4.597,98.275,0,91.5,0C85.42,0,80.145,3.694,78,9.208C75.858,3.697,70.582,0,64.5,0c-6.777,0-12.581,4.599-14.111,11.174
			C50.131,12.236,50,13.355,50,14.5c0,1.997,0.438,3.971,1.232,5.795c-19.626,9.789-32.198,29.183-33.154,50.96
			C11.396,67.429,6.171,66.711,2.957,69.2c-7.2,5.586-0.698,25.626,14.802,45.623c4.778,6.168,9.99,11.741,15.163,16.247
			l-4.262,0.355c-2.371,0.237-4.562,1.343-6.172,3.115C20.884,136.317,20,138.612,20,141c0,0.553,0.447,1,1,1h18.01
			c4.957,0,8.99-4.033,8.99-8.99v-7.047c0.678,0.391,1.359,0.774,2.041,1.134l0.723,10.334C47.328,138.376,45,140.785,45,143.5
			c0,3.645,3.958,6.5,9.01,6.5c4.544,0,8.306-2.394,8.91-5.608C62.971,144.272,63,144.14,63,144v-11.896
			c4.865,1.253,9.904,1.896,15,1.896c5.101,0,10.139-0.645,15-1.902V144c0,0.139,0.029,0.271,0.08,0.391
			c0.604,3.214,4.366,5.609,8.91,5.609c5.052,0,9.01-2.855,9.01-6.5c0-2.716-2.328-5.124-5.764-6.069l0.723-10.334
			c0.687-0.363,1.363-0.743,2.031-1.13v7.043c0,4.957,4.033,8.99,8.99,8.99h18.01c0.553,0,1-0.447,1-1
			c0-2.389-0.884-4.684-2.49-6.462c-1.607-1.771-3.799-2.876-6.187-3.114l-4.245-0.354
			C128.243,126.562,133.455,120.989,138.23,114.823z M52,14.5c0-0.683,0.073-1.347,0.18-2h7.2c-0.247,0.632-0.38,1.308-0.38,2
			c0,3.033,2.468,5.5,5.5,5.5s5.5-2.467,5.5-5.5c0-0.692-0.133-1.368-0.38-2h7.202c0.106,0.67,0.178,1.34,0.178,2
			C77,21.393,71.393,27,64.5,27c-4.596,0-8.807-2.504-10.991-6.536C52.508,18.615,52,16.608,52,14.5z M67.354,12.5
			c0.412,0.584,0.646,1.276,0.646,2c0,1.93-1.57,3.5-3.5,3.5S61,16.43,61,14.5c0-0.724,0.235-1.416,0.646-2H67.354z M79.177,12.5
			h7.953c-0.247,0.632-0.38,1.308-0.38,2c0,3.033,2.468,5.5,5.5,5.5s5.5-2.467,5.5-5.5c0-0.692-0.133-1.368-0.38-2h6.45
			c0.107,0.651,0.18,1.315,0.18,2c0,2.108-0.508,4.115-1.509,5.964C100.307,24.496,96.096,27,91.5,27C84.607,27,79,21.393,79,14.5
			C79,13.839,79.072,13.169,79.177,12.5z M95.104,12.5c0.412,0.584,0.646,1.276,0.646,2c0,1.93-1.57,3.5-3.5,3.5s-3.5-1.57-3.5-3.5
			c0-0.724,0.235-1.416,0.646-2H95.104z M91.5,2c5.443,0,10.154,3.442,11.841,8.5H79.654C81.351,5.439,86.052,2,91.5,2z M64.5,2
			c5.45,0,10.153,3.441,11.847,8.5H52.659C54.346,5.442,59.057,2,64.5,2z M46,133.01c0,3.854-3.136,6.99-6.99,6.99H22.065
			c0.201-1.526,0.86-2.961,1.905-4.118c1.274-1.403,3.011-2.279,4.872-2.466l6.24-0.521c0.551-0.046,0.959-0.529,0.913-1.079
			c-0.003-0.035-0.021-0.063-0.028-0.097c0.063-0.344-0.041-0.709-0.328-0.949c-5.53-4.608-11.167-10.546-16.301-17.173
			C3.538,93.211-1.255,74.999,4.183,70.781c2.544-1.97,7.273-1.104,13.278,2.421l0.548,0.351C18.007,73.702,18,73.848,18,74
			c0,20.802,10.467,39.71,28.044,50.782C46.027,124.854,46,124.923,46,125V133.01z M104.541,125.582
			c-0.311,0.16-0.515,0.471-0.539,0.819l-0.82,11.74c-0.035,0.504,0.312,0.955,0.809,1.051c2.949,0.57,5.01,2.342,5.01,4.309
			c0,2.439-3.21,4.5-7.01,4.5c-3.607,0-6.673-1.814-6.979-4.131c-0.001-0.011-0.009-0.02-0.011-0.031V121c0-0.553-0.447-1-1-1
			s-1,0.447-1,1v9.03c-9.704,2.602-20.275,2.602-30,0.006V121c0-0.553-0.447-1-1-1s-1,0.447-1,1v22.838
			c-0.002,0.011-0.009,0.02-0.011,0.031C60.683,146.186,57.617,148,54.01,148c-3.8,0-7.01-2.061-7.01-4.5
			c0-1.967,2.061-3.738,5.01-4.309c0.497-0.096,0.844-0.547,0.809-1.051l-0.82-11.74c-0.024-0.349-0.229-0.659-0.539-0.819
			c-1.196-0.617-2.401-1.293-3.578-2.006C30.423,112.947,20,94.414,20,74c0-0.32-0.001-0.63,0.02-0.984
			c0.352-21.755,12.65-41.234,32.119-50.938C54.762,26.364,59.427,29,64.5,29c6.141,0,11.39-3.844,13.5-9.247
			C80.11,25.156,85.359,29,91.5,29c5.073,0,9.738-2.635,12.361-6.922c19.469,9.704,31.767,29.183,32.121,50.981
			C136.001,73.37,136,73.68,136,74c0,20.416-10.426,38.949-27.891,49.577C106.958,124.279,105.758,124.954,104.541,125.582z
			 M120.35,130.771c-0.287,0.24-0.391,0.605-0.328,0.949c-0.006,0.034-0.025,0.062-0.028,0.097c-0.046,0.55,0.362,1.033,0.913,1.079
			l6.224,0.52c1.878,0.188,3.614,1.063,4.887,2.465c1.046,1.159,1.706,2.594,1.907,4.12H116.98c-3.854,0-6.99-3.136-6.99-6.99V125
			c0-0.077-0.027-0.146-0.044-0.218C127.528,113.714,138,94.805,138,74c0-0.155-0.001-0.306-0.002-0.455l0.499-0.323
			c6.039-3.543,10.768-4.411,13.311-2.442c5.438,4.219,0.646,22.431-15.157,42.818C131.519,120.222,125.882,126.161,120.35,130.771z
			"/>
		<path class="st157" d="M117,86c0-3.859-3.141-7-7-7s-7,3.141-7,7s3.141,7,7,7S117,89.86,117,86z M105,86c0-2.757,2.243-5,5-5
			s5,2.243,5,5s-2.243,5-5,5S105,88.757,105,86z"/>
		<path class="st157" d="M97.5,74c-2.481,0-4.5,2.019-4.5,4.5s2.019,4.5,4.5,4.5s4.5-2.019,4.5-4.5S99.981,74,97.5,74z M97.5,81
			c-1.379,0-2.5-1.121-2.5-2.5s1.121-2.5,2.5-2.5s2.5,1.121,2.5,2.5S98.879,81,97.5,81z"/>
		<path class="st157" d="M122.5,86c2.481,0,4.5-2.019,4.5-4.5s-2.019-4.5-4.5-4.5s-4.5,2.019-4.5,4.5S120.019,86,122.5,86z
			 M122.5,79c1.379,0,2.5,1.121,2.5,2.5s-1.121,2.5-2.5,2.5s-2.5-1.121-2.5-2.5S121.121,79,122.5,79z"/>
		<path class="st157" d="M85.5,87c-1.379,0-2.5,1.121-2.5,2.5s1.121,2.5,2.5,2.5s2.5-1.121,2.5-2.5S86.879,87,85.5,87z M85.5,90
			c-0.275,0-0.5-0.225-0.5-0.5s0.225-0.5,0.5-0.5s0.5,0.225,0.5,0.5S85.775,90,85.5,90z"/>
		<path class="st157" d="M116.5,71c1.379,0,2.5-1.122,2.5-2.5s-1.121-2.5-2.5-2.5s-2.5,1.122-2.5,2.5S115.121,71,116.5,71z
			 M116.5,68c0.275,0,0.5,0.224,0.5,0.5s-0.225,0.5-0.5,0.5s-0.5-0.224-0.5-0.5S116.225,68,116.5,68z"/>
		<path class="st157" d="M119.5,93c-1.379,0-2.5,1.121-2.5,2.5s1.121,2.5,2.5,2.5s2.5-1.121,2.5-2.5S120.879,93,119.5,93z M119.5,96
			c-0.275,0-0.5-0.225-0.5-0.5s0.225-0.5,0.5-0.5s0.5,0.225,0.5,0.5S119.775,96,119.5,96z"/>
		<path class="st157" d="M106.358,45.046c1.478,0.624,3.036,0.958,4.625,0.958c0.729,0,1.464-0.067,2.196-0.201
			c0.544-0.1,0.903-0.621,0.804-1.164c-0.099-0.543-0.618-0.897-1.163-0.804c-2.236,0.411-4.477,0.066-6.484-0.991
			c-2.127-1.121-3.78-2.97-4.654-5.209c-0.201-0.515-0.781-0.768-1.296-0.568c-0.514,0.201-0.769,0.781-0.567,1.295
			c0.933,2.388,2.607,4.404,4.76,5.768C98.611,54.701,88.729,61,78,61c-10.734,0-20.616-6.298-26.577-16.868
			c2.15-1.359,3.823-3.375,4.759-5.769c0.201-0.514-0.054-1.094-0.567-1.295c-0.518-0.2-1.096,0.053-1.296,0.568
			c-0.877,2.245-2.529,4.095-4.656,5.21c-2,1.058-4.24,1.401-6.482,0.99c-0.539-0.094-1.064,0.261-1.163,0.804
			c-0.1,0.543,0.26,1.064,0.804,1.164c0.716,0.131,1.439,0.196,2.162,0.196c1.601,0,3.185-0.335,4.659-0.953
			C55.957,56.295,66.508,63,78,63C89.486,63,100.036,56.295,106.358,45.046z"/>
	</g>
</g>
</svg>
